<svg width="287" height="335" viewBox="0 0 287 335" fill="none" xmlns="http://www.w3.org/2000/svg">
<path d="M35.5629 85.1671C34.0852 81.8301 35.5875 77.9162 38.9185 76.4251L132.116 34.7051C135.447 33.2139 139.346 34.7103 140.823 38.0472L203.861 180.393C209.772 193.741 203.763 209.397 190.439 215.361L115.335 248.981C112.004 250.472 108.106 248.976 106.628 245.639L35.5629 85.1671Z" fill="#DDCCCC"/>
<g style="mix-blend-mode:lighten" opacity="0.6">
<path d="M132.114 34.706C135.445 33.2152 139.343 34.7112 140.821 38.0479L203.858 180.394C209.769 193.742 203.76 209.397 190.436 215.361L115.332 248.982C112.001 250.473 108.104 248.977 106.626 245.64L35.5607 85.1675C34.0831 81.8307 35.5852 77.9175 38.916 76.4263L132.114 34.706ZM40.1356 79.4432C38.4701 80.1888 37.7195 82.1462 38.4584 83.8147L109.564 244.378C110.303 246.047 112.251 246.795 113.917 246.049L189.204 212.347C200.862 207.128 206.121 193.429 200.949 181.75L137.871 39.3126C137.132 37.6441 135.182 36.8956 133.517 37.6412L40.1356 79.4432Z" fill="white"/>
</g>
<mask id="mask0_2931_4006" style="mask-type:alpha" maskUnits="userSpaceOnUse" x="40" y="73" width="83" height="176">
<rect width="6.40699" height="188.72" transform="matrix(0.912722 -0.40858 0.40492 0.914352 40.1948 75.8525)" fill="#D9D9D9"/>
</mask>
<g mask="url(#mask0_2931_4006)">
<path d="M138.101 28.4638C141.432 26.9728 145.33 28.4686 146.808 31.8053L212.481 180.102C218.392 193.45 212.382 209.105 199.058 215.069L123.955 248.69C120.624 250.181 116.726 248.685 115.248 245.348L41.5475 78.9253C40.0701 75.5884 41.5728 71.6748 44.9037 70.1837L138.101 28.4638ZM46.1224 73.201C44.4572 73.9468 43.7064 75.9042 44.4452 77.5725L118.186 244.086C118.925 245.755 120.873 246.503 122.539 245.757L197.827 212.055C209.485 206.836 214.743 193.137 209.571 181.458L143.858 33.0704C143.119 31.402 141.17 30.6532 139.504 31.3986L46.1224 73.201Z" fill="#BAA0A0"/>
</g>
<rect width="8.00874" height="3.25379" transform="matrix(0.912722 -0.40858 0.40492 0.914352 48.3843 86.4463)" fill="#BAA0A0"/>
<rect width="8.00874" height="1.62689" transform="matrix(0.912722 -0.40858 0.40492 0.914352 48.3843 86.4463)" fill="#A58888"/>
<g style="mix-blend-mode:lighten" opacity="0.6">
<rect width="8.00874" height="1.62689" transform="matrix(0.912722 -0.40858 0.40492 0.914352 49.7021 89.4209)" fill="white"/>
</g>
<path d="M53.1035 77.3126C51.6257 73.9756 53.1281 70.0617 56.4591 68.5706L149.657 26.8506C152.988 25.3594 156.886 26.8558 158.364 30.1928L221.402 172.538C227.313 185.886 221.303 201.542 207.979 207.507L132.875 241.127C129.544 242.618 125.646 241.122 124.168 237.785L53.1035 77.3126Z" fill="#EDE4E4"/>
<g style="mix-blend-mode:lighten" opacity="0.4">
<path d="M149.668 26.8564C152.998 25.3655 156.896 26.8616 158.374 30.1983L221.412 172.544C227.323 185.892 221.314 201.548 207.99 207.513L132.886 241.133C129.555 242.624 125.657 241.127 124.179 237.79L53.114 77.3179C51.6365 73.9811 53.1386 70.0679 56.4692 68.5767L149.668 26.8564ZM57.6888 71.5936C56.0234 72.3392 55.2727 74.2967 56.0116 75.9651L127.117 236.529C127.856 238.197 129.805 238.945 131.47 238.199L206.757 204.497C218.416 199.278 223.675 185.579 218.502 173.9L155.424 31.463C154.685 29.7945 152.735 29.046 151.07 29.7915L57.6888 71.5936Z" fill="white"/>
</g>
<rect width="115.326" height="3.25379" transform="matrix(0.912722 -0.40858 0.40492 0.914352 55.7095 83.1797)" fill="#D8C5C5"/>
<rect width="115.326" height="1.62689" transform="matrix(0.912722 -0.40858 0.40492 0.914352 55.0479 81.6895)" fill="#C1A8A8"/>
<g style="mix-blend-mode:lighten" opacity="0.4">
<rect width="108.919" height="1.62689" transform="matrix(0.912722 -0.40858 0.40492 0.914352 59.9565 84.8408)" fill="white"/>
</g>
<rect width="4.80524" height="13.0151" transform="matrix(0.912722 -0.40858 0.40492 0.914352 59.2041 67.3477)" fill="#D8C5C5"/>
<g style="mix-blend-mode:lighten" opacity="0.4">
<rect width="1.60175" height="8.13447" transform="matrix(0.912722 -0.40858 0.40492 0.914352 59.061 70.9775)" fill="white"/>
</g>
<rect width="4.80524" height="1.62689" transform="matrix(0.912722 -0.40858 0.40492 0.914352 59.2041 67.3477)" fill="#C1A8A8"/>
<rect width="4.80524" height="13.0151" transform="matrix(0.912722 -0.40858 0.40492 0.914352 139.619 31.3574)" fill="#D8C5C5"/>
<g style="mix-blend-mode:lighten" opacity="0.4">
<rect width="1.60175" height="8.13447" transform="matrix(0.912722 -0.40858 0.40492 0.914352 139.476 34.9873)" fill="white"/>
</g>
<rect width="4.80524" height="1.62689" transform="matrix(0.912722 -0.40858 0.40492 0.914352 139.619 31.3574)" fill="#C1A8A8"/>
<rect width="8.00874" height="3.25379" transform="matrix(0.912722 -0.40858 0.40492 0.914352 67.9868 63.4258)" fill="#D8C5C5"/>
<rect width="8.00874" height="1.62689" transform="matrix(0.912722 -0.40858 0.40492 0.914352 67.9868 63.4258)" fill="#C1A8A8"/>
<rect width="22.4245" height="6.50757" rx="3.25379" transform="matrix(0.912722 -0.40858 0.40492 0.914352 66.3794 67.708)" fill="#D8C5C5"/>
<rect width="17.6192" height="3.25379" rx="1.62689" transform="matrix(0.912722 -0.40858 0.40492 0.914352 69.8901 69.7012)" fill="#C1A8A8"/>
<rect width="17.6192" height="3.25379" rx="1.62689" transform="matrix(0.912722 -0.40858 0.40492 0.914352 69.2305 68.2148)" fill="#EDE4E4"/>
<g style="mix-blend-mode:lighten" opacity="0.4">
<path d="M69.8892 69.7024C69.5254 68.8808 69.8953 67.9172 70.7154 67.5501L83.827 61.6807C84.6471 61.3136 85.6069 61.682 85.9707 62.5035L69.8892 69.7024Z" fill="white"/>
</g>
<path d="M69.4478 62.7695L70.9097 62.1151L71.9029 64.3579C72.082 64.7623 71.9 65.2367 71.4963 65.4174C71.0925 65.5981 70.6201 65.4168 70.441 65.0124L69.4478 62.7695Z" fill="#EDE4E4"/>
<path d="M72.373 61.4609L73.835 60.8065L74.8282 63.0493C75.0073 63.4537 74.8253 63.9281 74.4215 64.1088C74.0178 64.2895 73.5454 64.1082 73.3663 63.7038L72.373 61.4609Z" fill="#EDE4E4"/>
<rect width="8.00874" height="3.25379" transform="matrix(0.912722 -0.40858 0.40492 0.914352 172.306 219.921)" fill="#D8C5C5"/>
<rect width="22.4245" height="6.50757" rx="3.25379" transform="matrix(0.912722 -0.40858 0.40492 0.914352 159.446 218.547)" fill="#D8C5C5"/>
<rect width="17.6192" height="3.25379" rx="1.62689" transform="matrix(0.912722 -0.40858 0.40492 0.914352 162.951 220.54)" fill="#C1A8A8"/>
<rect width="17.6192" height="3.25379" rx="1.62689" transform="matrix(0.912722 -0.40858 0.40492 0.914352 162.289 219.056)" fill="#EDE4E4"/>
<g style="mix-blend-mode:lighten" opacity="0.4">
<path d="M162.947 220.543C162.584 219.722 162.953 218.758 163.773 218.391L176.885 212.522C177.705 212.154 178.665 212.523 179.029 213.344L162.947 220.543Z" fill="white"/>
</g>
<path d="M174.095 219.996C173.916 219.592 174.098 219.117 174.502 218.936C174.906 218.756 175.378 218.937 175.557 219.342L176.55 221.584L175.089 222.239L174.095 219.996Z" fill="#EDE4E4"/>
<path d="M177.021 218.684C176.841 218.28 177.024 217.806 177.427 217.625C177.831 217.444 178.303 217.626 178.483 218.03L179.476 220.273L178.014 220.927L177.021 218.684Z" fill="#EDE4E4"/>
<path d="M69.0908 89.7115C68.3519 88.043 69.1031 86.086 70.7686 85.3405L152.454 48.7738C154.12 48.0283 156.069 48.7764 156.808 50.4449L177.766 97.771C181.461 106.113 177.705 115.898 169.377 119.626L99.7541 150.793C98.0886 151.538 96.1394 150.79 95.4006 149.122L69.0908 89.7115Z" fill="#7E7E89"/>
<path d="M152.453 48.7739C154.119 48.0283 156.068 48.776 156.807 50.4444L177.766 97.771C181.46 106.113 177.704 115.898 169.376 119.626L99.7536 150.792C98.0881 151.538 96.1385 150.79 95.3996 149.122L69.0897 89.7112C68.351 88.0427 69.1028 86.0857 70.7682 85.3402L152.453 48.7739ZM71.3828 86.8487C70.5501 87.2214 70.1743 88.2003 70.5438 89.0346L96.8738 148.491C97.2433 149.325 98.2183 149.699 99.051 149.326L168.766 118.119C176.26 114.764 179.64 105.957 176.316 98.4491L155.337 51.0769C154.967 50.2427 153.992 49.8684 153.16 50.2412L71.3828 86.8487Z" fill="black" fill-opacity="0.2"/>
<g style="mix-blend-mode:lighten" opacity="0.2">
<path d="M153.167 50.2379C154 49.8652 154.975 50.2394 155.345 51.0737L176.323 98.4459C179.648 105.954 176.268 114.76 168.773 118.115L99.0578 149.324C98.2251 149.696 97.2508 149.322 96.8815 148.487L70.5514 89.0313C70.182 88.1972 70.5571 87.2187 71.3896 86.8458L153.167 50.2379ZM72.0065 88.3522L98.3567 147.854L168.164 116.605C174.826 113.622 177.83 105.795 174.875 99.1209L153.876 51.7032L72.0065 88.3522Z" fill="white"/>
</g>
<rect width="64.0699" height="52.0606" transform="matrix(0.912722 -0.40858 0.40492 0.914352 86.3252 89.0693)" fill="#22D1EC"/>
<path d="M165.883 110.493L107.405 136.671L86.3242 89.0693L144.803 62.8915L165.883 110.493ZM90.5718 90.7383L109.017 132.39L161.647 108.83L143.202 67.1783L90.5718 90.7383Z" fill="black" fill-opacity="0.2"/>
<g style="mix-blend-mode:lighten" opacity="0.24">
<path d="M106.505 87.1639L94.8096 92.3994L100.08 104.3L106.505 87.1639Z" fill="white"/>
</g>
<g style="mix-blend-mode:lighten" opacity="0.24">
<path d="M157.403 107.158L146.863 83.357L134.012 117.629L157.403 107.158Z" fill="white"/>
</g>
<g style="mix-blend-mode:lighten" opacity="0.24">
<path d="M135.749 74.0737L141.597 71.4559L122.32 122.864L116.472 125.482L135.749 74.0737Z" fill="white"/>
</g>
<g style="mix-blend-mode:lighten" opacity="0.24">
<path d="M129.896 76.6928L132.82 75.3839L113.544 126.792L110.62 128.101L129.896 76.6928Z" fill="white"/>
</g>
<ellipse cx="17.6192" cy="17.8958" rx="17.6192" ry="17.8958" transform="matrix(0.912722 -0.40858 0.40492 0.914352 101.732 171.295)" fill="#DDCCCC"/>
<path d="M115.658 173.078C115.112 171.846 115.651 170.407 116.863 169.865L122.71 167.247C123.921 166.705 125.346 167.265 125.891 168.497L135.773 190.81C136.319 192.043 135.779 193.481 134.568 194.023L128.72 196.641C127.509 197.183 126.085 196.624 125.539 195.391L115.658 173.078Z" fill="#BAA0A0"/>
<path d="M134.374 171.83C135.585 171.287 137.01 171.847 137.555 173.079L140.19 179.029C140.736 180.262 140.197 181.7 138.986 182.242L117.056 192.059C115.845 192.601 114.421 192.042 113.875 190.809L111.24 184.859C110.694 183.627 111.234 182.188 112.445 181.646L134.374 171.83Z" fill="#BAA0A0"/>
<path d="M114.996 171.595C114.45 170.362 114.99 168.924 116.201 168.382L122.049 165.764C123.26 165.222 124.684 165.781 125.23 167.014L135.111 189.327C135.657 190.559 135.118 191.998 133.906 192.54L128.059 195.158C126.848 195.7 125.423 195.14 124.878 193.908L114.996 171.595Z" fill="#6B6B75"/>
<path d="M133.713 170.346C134.924 169.804 136.348 170.363 136.894 171.596L139.529 177.546C140.075 178.778 139.535 180.217 138.324 180.759L116.395 190.576C115.184 191.118 113.759 190.558 113.214 189.326L110.579 183.376C110.033 182.143 110.572 180.705 111.783 180.163L133.713 170.346Z" fill="#6B6B75"/>
<ellipse cx="4.80524" cy="4.88068" rx="4.80524" ry="4.88068" transform="matrix(0.912722 -0.40858 0.40492 0.914352 118.7 177.961)" fill="#5E5E68"/>
<g style="mix-blend-mode:lighten" opacity="0.24">
<path d="M126.373 183.433C124.758 184.156 122.86 183.41 122.132 181.766C121.404 180.123 122.123 178.205 123.738 177.482" stroke="white" stroke-width="1.23901" stroke-linecap="round"/>
</g>
<g style="mix-blend-mode:lighten" opacity="0.24">
<path d="M123.443 166.922L116.887 169.857C116.471 170.043 116.283 170.532 116.468 170.949L117.451 173.169" stroke="white" stroke-width="0.826009" stroke-linecap="round"/>
</g>
<g style="mix-blend-mode:lighten" opacity="0.24">
<path d="M117.561 179.356L112.467 181.637C112.05 181.823 111.862 182.312 112.047 182.729L112.701 184.206" stroke="white" stroke-width="0.826009" stroke-linecap="round"/>
</g>
<g style="mix-blend-mode:lighten" opacity="0.24">
<path d="M135.107 171.506L129.261 174.123" stroke="white" stroke-width="0.826009" stroke-linecap="round"/>
</g>
<ellipse cx="8.00874" cy="8.13447" rx="8.00874" ry="8.13447" transform="matrix(0.912722 -0.40858 0.40492 0.914352 161.899 156.836)" fill="#DDCCCC"/>
<ellipse cx="8.00874" cy="8.13447" rx="8.00874" ry="8.13447" transform="matrix(0.912722 -0.40858 0.40492 0.914352 161.238 155.351)" fill="#A86578"/>
<g style="mix-blend-mode:lighten" opacity="0.2">
<path d="M169.198 153.562C165.969 155.008 164.53 158.844 165.986 162.13L177.681 156.894C176.226 153.608 172.428 152.116 169.198 153.562Z" fill="url(#paint0_linear_2931_4006)"/>
</g>
<ellipse cx="8.00874" cy="8.13447" rx="8.00874" ry="8.13447" transform="matrix(0.912722 -0.40858 0.40492 0.914352 178.413 138.753)" fill="#DDCCCC"/>
<ellipse cx="8.00874" cy="8.13447" rx="8.00874" ry="8.13447" transform="matrix(0.912722 -0.40858 0.40492 0.914352 177.751 137.264)" fill="#A86578"/>
<g style="mix-blend-mode:lighten" opacity="0.2">
<path d="M185.724 135.48C182.494 136.926 181.056 140.762 182.511 144.048L194.207 138.812C192.751 135.526 188.953 134.034 185.724 135.48Z" fill="url(#paint1_linear_2931_4006)"/>
</g>
<path d="M144.905 209.423C143.468 208.362 143.141 206.328 144.176 204.88L151.669 194.396C152.704 192.948 154.708 192.635 156.146 193.697C157.583 194.758 157.91 196.792 156.875 198.24L149.382 208.724C148.347 210.172 146.343 210.485 144.905 209.423Z" fill="#DDCCCC"/>
<path d="M144.247 207.933C142.81 206.872 142.483 204.838 143.518 203.39L151.012 192.906C152.046 191.458 154.05 191.145 155.488 192.207C156.925 193.268 157.252 195.302 156.217 196.75L148.724 207.234C147.689 208.682 145.685 208.995 144.247 207.933Z" fill="#7E7E89"/>
<g style="mix-blend-mode:lighten" opacity="0.24">
<path d="M144.536 206.143C144.176 205.877 144.095 205.369 144.353 205.007L152.784 193.212C153.042 192.85 153.543 192.772 153.903 193.037C154.262 193.303 154.344 193.811 154.085 194.173L145.655 205.968C145.396 206.33 144.895 206.408 144.536 206.143Z" fill="white"/>
</g>
<path d="M162.838 201.397C161.4 200.335 161.074 198.301 162.108 196.854L169.602 186.369C170.637 184.922 172.641 184.609 174.078 185.67C175.516 186.732 175.842 188.766 174.808 190.214L167.314 200.698C166.279 202.146 164.275 202.459 162.838 201.397Z" fill="#DDCCCC"/>
<path d="M162.176 199.907C160.738 198.845 160.411 196.811 161.446 195.364L168.94 184.879C169.974 183.432 171.979 183.119 173.416 184.18C174.854 185.242 175.18 187.276 174.146 188.723L166.652 199.208C165.617 200.655 163.613 200.968 162.176 199.907Z" fill="#7E7E89"/>
<g style="mix-blend-mode:lighten" opacity="0.24">
<path d="M162.561 198.516C162.201 198.251 162.119 197.742 162.378 197.38L170.808 185.585C171.067 185.223 171.568 185.145 171.928 185.41C172.287 185.676 172.369 186.184 172.11 186.546L163.68 198.341C163.421 198.703 162.92 198.781 162.561 198.516Z" fill="white"/>
</g>
<rect width="3.21614" height="19.4477" rx="1.60807" transform="matrix(0.582503 -0.814977 0.803063 0.592998 182.278 194.949)" fill="#AD9C9C"/>
<rect width="3.21614" height="19.4477" rx="1.60807" transform="matrix(0.582503 -0.814977 0.803063 0.592998 186.026 189.71)" fill="#AD9C9C"/>
<rect width="3.21614" height="19.4477" rx="1.60807" transform="matrix(0.582503 -0.814977 0.803063 0.592998 189.772 184.466)" fill="#AD9C9C"/>
<rect width="3.21614" height="19.4477" rx="1.60807" transform="matrix(0.582503 -0.814977 0.803063 0.592998 193.52 179.226)" fill="#AD9C9C"/>
<rect width="3.21614" height="19.4477" rx="1.60807" transform="matrix(0.582503 -0.814977 0.803063 0.592998 197.268 173.981)" fill="#AD9C9C"/>
<rect width="3.21614" height="19.4477" rx="1.60807" transform="matrix(0.582503 -0.814977 0.803063 0.592998 201.014 168.742)" fill="#AD9C9C"/>
<rect width="6.40699" height="1.62689" transform="matrix(0.912722 -0.40858 0.40492 0.914352 92.8213 214.489)" fill="#A58888"/>
<rect width="6.40699" height="1.62689" transform="matrix(0.912722 -0.40858 0.40492 0.914352 90.1899 208.537)" fill="#A58888"/>
<rect width="6.40699" height="1.62689" transform="matrix(0.912722 -0.40858 0.40492 0.914352 87.5522 202.586)" fill="#A58888"/>
<rect width="6.40699" height="1.62689" transform="matrix(0.912722 -0.40858 0.40492 0.914352 84.917 196.637)" fill="#A58888"/>
<rect width="6.40699" height="1.62689" transform="matrix(0.912722 -0.40858 0.40492 0.914352 82.2856 190.687)" fill="#A58888"/>
<rect width="6.40699" height="1.62689" transform="matrix(0.912722 -0.40858 0.40492 0.914352 79.6479 184.738)" fill="#A58888"/>
<rect width="6.40699" height="1.62689" transform="matrix(0.912722 -0.40858 0.40492 0.914352 77.0127 178.788)" fill="#A58888"/>
<rect width="6.40699" height="1.62689" transform="matrix(0.912722 -0.40858 0.40492 0.914352 74.3809 172.837)" fill="#A58888"/>
<rect width="6.40699" height="1.62689" transform="matrix(0.912722 -0.40858 0.40492 0.914352 71.7437 166.887)" fill="#A58888"/>
<rect width="6.40699" height="1.62689" transform="matrix(0.912722 -0.40858 0.40492 0.914352 69.1064 160.936)" fill="#A58888"/>
<rect width="6.40699" height="1.62689" transform="matrix(0.912722 -0.40858 0.40492 0.914352 93.4785 215.979)" fill="#BAA0A0"/>
<rect width="6.40699" height="1.62689" transform="matrix(0.912722 -0.40858 0.40492 0.914352 90.8472 210.029)" fill="#BAA0A0"/>
<rect width="6.40699" height="1.62689" transform="matrix(0.912722 -0.40858 0.40492 0.914352 88.21 204.079)" fill="#BAA0A0"/>
<rect width="6.40699" height="1.62689" transform="matrix(0.912722 -0.40858 0.40492 0.914352 85.5742 198.13)" fill="#BAA0A0"/>
<rect width="6.40699" height="1.62689" transform="matrix(0.912722 -0.40858 0.40492 0.914352 82.9429 192.179)" fill="#BAA0A0"/>
<rect width="6.40699" height="1.62689" transform="matrix(0.912722 -0.40858 0.40492 0.914352 80.3057 186.227)" fill="#BAA0A0"/>
<rect width="6.40699" height="1.62689" transform="matrix(0.912722 -0.40858 0.40492 0.914352 77.6699 180.277)" fill="#BAA0A0"/>
<rect width="6.40699" height="1.62689" transform="matrix(0.912722 -0.40858 0.40492 0.914352 75.0386 174.328)" fill="#BAA0A0"/>
<rect width="6.40699" height="1.62689" transform="matrix(0.912722 -0.40858 0.40492 0.914352 72.3989 168.379)" fill="#BAA0A0"/>
<rect width="6.40699" height="1.62689" transform="matrix(0.912722 -0.40858 0.40492 0.914352 69.7637 162.428)" fill="#BAA0A0"/>
<g style="mix-blend-mode:lighten" opacity="0.6">
<rect width="3.2035" height="1.62689" transform="matrix(0.912722 -0.40858 0.40492 0.914352 97.0693 216.157)" fill="white"/>
<rect width="3.2035" height="1.62689" transform="matrix(0.912722 -0.40858 0.40492 0.914352 94.436 210.209)" fill="white"/>
<rect width="3.2035" height="1.62689" transform="matrix(0.912722 -0.40858 0.40492 0.914352 91.8003 204.257)" fill="white"/>
<rect width="3.2035" height="1.62689" transform="matrix(0.912722 -0.40858 0.40492 0.914352 89.165 198.306)" fill="white"/>
<rect width="3.2035" height="1.62689" transform="matrix(0.912722 -0.40858 0.40492 0.914352 86.5317 192.355)" fill="white"/>
<rect width="3.2035" height="1.62689" transform="matrix(0.912722 -0.40858 0.40492 0.914352 83.894 186.406)" fill="white"/>
<rect width="3.2035" height="1.62689" transform="matrix(0.912722 -0.40858 0.40492 0.914352 81.2588 180.457)" fill="white"/>
<rect width="3.2035" height="1.62689" transform="matrix(0.912722 -0.40858 0.40492 0.914352 78.6274 174.507)" fill="white"/>
<rect width="3.2035" height="1.62689" transform="matrix(0.912722 -0.40858 0.40492 0.914352 75.9878 168.556)" fill="white"/>
<rect width="3.2035" height="1.62689" transform="matrix(0.912722 -0.40858 0.40492 0.914352 73.3545 162.605)" fill="white"/>
</g>
<path d="M50.2729 110.474C49.1983 108.047 50.2908 105.201 52.713 104.117L63.2532 127.918C60.8309 129.002 57.9962 127.914 56.9216 125.487L50.2729 110.474Z" fill="#BAA0A0"/>
<path d="M53.2228 109.208C52.8646 108.399 53.2288 107.45 54.0362 107.089L61.9413 124.939C61.1339 125.301 60.189 124.938 59.8308 124.129L53.2228 109.208Z" fill="#DDCCCC"/>
<path d="M53.3848 105.601C51.7723 106.325 51.0454 108.222 51.7613 109.839L59.8494 128.103C58.5949 127.7 57.5112 126.785 56.9345 125.483L50.2858 110.469C49.2112 108.043 50.3033 105.197 52.7252 104.112L53.3848 105.601Z" fill="#A58888"/>
<path d="M57.626 107.268C60.0482 106.183 62.883 107.271 63.9576 109.698L66.6537 115.786C67.7283 118.213 66.6358 121.059 64.2136 122.143L57.626 107.268Z" fill="#BAA0A0"/>
<path d="M57.6294 107.264C60.0516 106.179 62.8861 107.268 63.9606 109.695L66.6567 115.783C67.2328 117.084 67.1852 118.504 66.6446 119.71L62.5099 110.374C61.816 108.807 60.0212 108.077 58.4416 108.69L58.2894 108.754L57.6294 107.264Z" fill="#A58888"/>
<rect width="3.2035" height="9.76136" rx="1.60175" transform="matrix(0.912722 -0.40858 0.40492 0.914352 57.4814 110.896)" fill="#A58888"/>
<g filter="url(#filter0_f_2931_4006)">
<ellipse cx="76.8747" cy="17.7072" rx="76.8747" ry="17.7072" transform="matrix(0.99999 0.00447735 0.00441774 0.99999 69.3374 256.339)" fill="black" fill-opacity="0.06"/>
</g>
<ellipse cx="3.20276" cy="3.25451" rx="3.20276" ry="3.25451" transform="matrix(-0.944599 0.328226 0.326989 0.945028 175.031 9.5625)" fill="white"/>
<ellipse cx="1.60138" cy="1.62726" rx="1.60138" ry="1.62726" transform="matrix(-0.944599 0.328226 0.326989 0.945028 193.964 20.207)" fill="white"/>
<ellipse cx="1.60138" cy="1.62726" rx="1.60138" ry="1.62726" transform="matrix(0.944599 -0.328226 0.326989 0.945028 217.731 125.639)" fill="white"/>
<path d="M225.187 104.291C225.201 103.914 225.671 103.751 225.915 104.038L227.944 106.43C228.017 106.517 228.124 106.569 228.239 106.575L231.354 106.721C231.726 106.739 231.886 107.201 231.605 107.446L229.248 109.493C229.162 109.568 229.111 109.676 229.106 109.79L228.99 112.928C228.976 113.304 228.507 113.468 228.263 113.18L226.234 110.788C226.16 110.701 226.053 110.649 225.939 110.643L222.823 110.497C222.451 110.48 222.291 110.017 222.573 109.772L224.929 107.725C225.016 107.65 225.067 107.542 225.071 107.428L225.187 104.291Z" fill="white"/>
<ellipse cx="3.20276" cy="3.25451" rx="3.20276" ry="3.25451" transform="matrix(0.944599 -0.328226 0.326989 0.945028 73.2998 239.573)" fill="white"/>
<ellipse cx="1.60138" cy="1.62726" rx="1.60138" ry="1.62726" transform="matrix(0.944599 -0.328226 0.326989 0.945028 27.7563 137.308)" fill="white"/>
<path d="M34.7072 116.965C34.4573 116.684 34.6745 116.24 35.0455 116.275L38.1428 116.565C38.256 116.576 38.3681 116.539 38.4524 116.462L40.7563 114.368C41.0322 114.117 41.4714 114.341 41.4403 114.717L41.1811 117.854C41.1717 117.969 41.2096 118.082 41.2859 118.169L43.3724 120.522C43.6223 120.804 43.405 121.247 43.0341 121.212L39.9368 120.922C39.8236 120.911 39.7115 120.949 39.6272 121.025L37.3233 123.119C37.0474 123.37 36.6082 123.146 36.6393 122.771L36.8984 119.633C36.9079 119.519 36.87 119.405 36.7937 119.319L34.7072 116.965Z" fill="white"/>
<defs>
<filter id="filter0_f_2931_4006" x="56.1994" y="243.464" width="180.18" height="61.8532" filterUnits="userSpaceOnUse" color-interpolation-filters="sRGB">
<feFlood flood-opacity="0" result="BackgroundImageFix"/>
<feBlend mode="normal" in="SourceGraphic" in2="BackgroundImageFix" result="shape"/>
<feGaussianBlur stdDeviation="6.60807" result="effect1_foregroundBlur_2931_4006"/>
</filter>
<linearGradient id="paint0_linear_2931_4006" x1="169.198" y1="153.562" x2="171.857" y2="159.501" gradientUnits="userSpaceOnUse">
<stop stop-color="white"/>
<stop offset="1" stop-color="white" stop-opacity="0"/>
</linearGradient>
<linearGradient id="paint1_linear_2931_4006" x1="185.724" y1="135.48" x2="188.383" y2="141.419" gradientUnits="userSpaceOnUse">
<stop stop-color="white"/>
<stop offset="1" stop-color="white" stop-opacity="0"/>
</linearGradient>
</defs>
</svg>
