<svg width="808" height="110" viewBox="0 0 808 110" fill="none" xmlns="http://www.w3.org/2000/svg">
<path d="M77.0914 62V8L0 62H77.0914Z" fill="#089AE1"/>
<g filter="url(#filter0_d_2743_1744)">
<rect x="68.7573" y="5" width="729.243" height="90" rx="10" fill="#00ABFF"/>
</g>
<rect x="68.7573" y="35.0146" width="729.243" height="29.9692" fill="#22C0EC"/>
<path d="M68.7573 15C68.7573 9.47715 73.2345 5 78.7573 5H788C793.523 5 798 9.47715 798 15V34.9692H68.7573V15Z" fill="#22D1EC"/>
<g filter="url(#filter1_f_2743_1744)">
<path d="M386.343 56.34V62.5H380.918V40.555H388.933C392.316 40.555 394.72 41.15 396.143 42.34C397.566 43.5067 398.278 45.4783 398.278 48.255C398.278 51.0083 397.52 53.05 396.003 54.38C394.51 55.6867 392.188 56.34 389.038 56.34H386.343ZM392.783 48.255C392.783 47.2283 392.503 46.505 391.943 46.085C391.383 45.665 390.38 45.455 388.933 45.455H386.343V51.58H388.933C390.403 51.58 391.406 51.335 391.943 50.845C392.503 50.355 392.783 49.4917 392.783 48.255ZM417.407 57.425V62.5H402.287V40.555H417.092V45.455H407.712V49.095H415.797V53.645H407.712V57.425H417.407ZM427.133 55.43V62.5H421.708V40.555H429.723C433.106 40.555 435.51 41.1267 436.933 42.27C438.356 43.4133 439.068 45.315 439.068 47.975C439.068 49.7717 438.683 51.2417 437.913 52.385C437.166 53.505 436.023 54.3217 434.483 54.835L439.838 62.5H433.328L428.778 55.43H427.133ZM433.573 47.975C433.573 47.0417 433.293 46.3883 432.733 46.015C432.173 45.6417 431.17 45.455 429.723 45.455H427.133V51.055H429.723C431.17 51.055 432.173 50.8333 432.733 50.39C433.293 49.9233 433.573 49.1183 433.573 47.975ZM449.083 54.52V62.5H443.658V40.555H458.463V45.455H449.083V49.97H457.168V54.52H449.083ZM467.957 40.555V62.5H462.532V40.555H467.957ZM487.066 57.425V62.5H473.066V40.555H478.491V57.425H487.066Z" fill="white"/>
</g>
<path d="M386.343 56.34V62.5H380.918V40.555H388.933C392.316 40.555 394.72 41.15 396.143 42.34C397.566 43.5067 398.278 45.4783 398.278 48.255C398.278 51.0083 397.52 53.05 396.003 54.38C394.51 55.6867 392.188 56.34 389.038 56.34H386.343ZM392.783 48.255C392.783 47.2283 392.503 46.505 391.943 46.085C391.383 45.665 390.38 45.455 388.933 45.455H386.343V51.58H388.933C390.403 51.58 391.406 51.335 391.943 50.845C392.503 50.355 392.783 49.4917 392.783 48.255ZM417.407 57.425V62.5H402.287V40.555H417.092V45.455H407.712V49.095H415.797V53.645H407.712V57.425H417.407ZM427.133 55.43V62.5H421.708V40.555H429.723C433.106 40.555 435.51 41.1267 436.933 42.27C438.356 43.4133 439.068 45.315 439.068 47.975C439.068 49.7717 438.683 51.2417 437.913 52.385C437.166 53.505 436.023 54.3217 434.483 54.835L439.838 62.5H433.328L428.778 55.43H427.133ZM433.573 47.975C433.573 47.0417 433.293 46.3883 432.733 46.015C432.173 45.6417 431.17 45.455 429.723 45.455H427.133V51.055H429.723C431.17 51.055 432.173 50.8333 432.733 50.39C433.293 49.9233 433.573 49.1183 433.573 47.975ZM449.083 54.52V62.5H443.658V40.555H458.463V45.455H449.083V49.97H457.168V54.52H449.083ZM467.957 40.555V62.5H462.532V40.555H467.957ZM487.066 57.425V62.5H473.066V40.555H478.491V57.425H487.066Z" fill="white"/>
<defs>
<filter id="filter0_d_2743_1744" x="58.7573" y="0" width="749.243" height="110" filterUnits="userSpaceOnUse" color-interpolation-filters="sRGB">
<feFlood flood-opacity="0" result="BackgroundImageFix"/>
<feColorMatrix in="SourceAlpha" type="matrix" values="0 0 0 0 0 0 0 0 0 0 0 0 0 0 0 0 0 0 127 0" result="hardAlpha"/>
<feOffset dy="5"/>
<feGaussianBlur stdDeviation="5"/>
<feComposite in2="hardAlpha" operator="out"/>
<feColorMatrix type="matrix" values="0 0 0 0 0 0 0 0 0 0 0 0 0 0 0 0 0 0 0.2 0"/>
<feBlend mode="normal" in2="BackgroundImageFix" result="effect1_dropShadow_2743_1744"/>
<feBlend mode="normal" in="SourceGraphic" in2="effect1_dropShadow_2743_1744" result="shape"/>
</filter>
<filter id="filter1_f_2743_1744" x="376.918" y="36.5547" width="114.148" height="29.9453" filterUnits="userSpaceOnUse" color-interpolation-filters="sRGB">
<feFlood flood-opacity="0" result="BackgroundImageFix"/>
<feBlend mode="normal" in="SourceGraphic" in2="BackgroundImageFix" result="shape"/>
<feGaussianBlur stdDeviation="2" result="effect1_foregroundBlur_2743_1744"/>
</filter>
</defs>
</svg>
