<svg width="280" height="100" viewBox="0 0 280 100" fill="none" xmlns="http://www.w3.org/2000/svg">
<path d="M27 43V9L0 43H27Z" fill="#099AE1"/>
<g filter="url(#filter0_d_3931_305)">
<path d="M25 15C25 9.47715 29.4772 5 35 5H255C260.523 5 265 9.47715 265 15V65C265 70.5229 260.523 75 255 75H35C29.4772 75 25 70.5229 25 65V15Z" fill="#00ABFF"/>
</g>
<path d="M25 28.3457H265V51.6551H25V28.3457Z" fill="#22C0EC"/>
<path d="M25 15C25 9.47715 29.4772 5 35 5H255C260.523 5 265 9.47715 265 15V28.3094H25V15Z" fill="#22D1EC"/>
<g filter="url(#filter1_f_3931_305)">
<path d="M243.111 43.4731L239.569 42.6364C238.156 42.3017 237.189 41.7904 236.669 41.1025C236.167 40.4145 235.916 39.4291 235.916 38.1461C235.916 36.1194 236.446 34.632 237.506 33.6837C238.584 32.7168 240.248 32.2334 242.498 32.2334C243.428 32.2334 244.255 32.2706 244.98 32.345C245.705 32.4193 246.375 32.5495 246.988 32.7354V36.6122C245.575 36.3704 244.599 36.231 244.06 36.1938C243.539 36.1566 242.991 36.138 242.414 36.138C241.633 36.138 241.066 36.2682 240.713 36.5285C240.36 36.7888 240.183 37.2257 240.183 37.8393C240.183 38.1368 240.239 38.3692 240.35 38.5366C240.462 38.6853 240.676 38.7969 240.992 38.8713L244.339 39.6522C245.305 39.8753 246.003 40.0984 246.43 40.3215C246.858 40.5261 247.202 40.7957 247.462 41.1304C247.76 41.4836 247.974 41.9392 248.104 42.497C248.253 43.0548 248.327 43.7334 248.327 44.533C248.327 46.5596 247.788 48.0285 246.709 48.9396C245.631 49.8321 243.957 50.2783 241.689 50.2783C240.536 50.2783 239.439 50.204 238.398 50.0552C237.357 49.9251 236.548 49.7577 235.972 49.5532V45.4533C236.715 45.695 237.598 45.8903 238.621 46.039C239.644 46.1692 240.666 46.2343 241.689 46.2343C242.507 46.2343 243.074 46.132 243.39 45.9275C243.706 45.7229 243.864 45.3139 243.864 44.7003C243.864 44.3098 243.809 44.0309 243.697 43.8636C243.604 43.6777 243.409 43.5475 243.111 43.4731Z" fill="white"/>
</g>
<g filter="url(#filter2_f_3931_305)">
<path d="M233 41.2419C233 44.4214 232.349 46.727 231.047 48.1587C229.764 49.5718 227.673 50.2783 224.772 50.2783C221.741 50.2783 219.612 49.609 218.385 48.2702C217.158 46.9315 216.544 44.5887 216.544 41.2419C216.544 38.0624 217.186 35.7662 218.469 34.353C219.77 32.9399 221.871 32.2334 224.772 32.2334C227.803 32.2334 229.932 32.9028 231.159 34.2415C232.386 35.5802 233 37.9137 233 41.2419ZM221.453 44.9792C221.695 45.444 222.048 45.7694 222.513 45.9554C222.996 46.1413 223.749 46.2343 224.772 46.2343C225.795 46.2343 226.538 46.1413 227.003 45.9554C227.487 45.7694 227.849 45.444 228.091 44.9792C228.277 44.6073 228.407 44.1239 228.481 43.5289C228.574 42.9339 228.621 42.1716 228.621 41.2419C228.621 40.2937 228.574 39.522 228.481 38.927C228.407 38.3135 228.277 37.8207 228.091 37.4489C227.868 36.9654 227.515 36.6307 227.031 36.4448C226.566 36.2403 225.813 36.138 224.772 36.138C223.731 36.138 222.968 36.2403 222.485 36.4448C222.02 36.6307 221.676 36.9654 221.453 37.4489C221.267 37.8207 221.128 38.3135 221.035 38.927C220.96 39.522 220.923 40.2937 220.923 41.2419C220.923 42.1716 220.96 42.9339 221.035 43.5289C221.128 44.1239 221.267 44.6073 221.453 44.9792Z" fill="white"/>
</g>
<g filter="url(#filter3_f_3931_305)">
<path d="M213.059 32.5127V49.9998H208.736V32.5127H213.059Z" fill="white"/>
</g>
<g filter="url(#filter4_f_3931_305)">
<path d="M195.568 44.366V49.9998H191.245V32.5127H197.631C200.328 32.5127 202.243 32.9682 203.377 33.8793C204.511 34.7904 205.078 36.3058 205.078 38.4254C205.078 39.8571 204.771 41.0285 204.158 41.9396C203.563 42.8321 202.652 43.4828 201.425 43.8919L205.692 49.9998H200.504L196.878 44.366H195.568ZM200.699 38.4254C200.699 37.6817 200.476 37.1611 200.03 36.8636C199.584 36.5661 198.784 36.4173 197.631 36.4173H195.568V40.8797H197.631C198.784 40.8797 199.584 40.7031 200.03 40.3498C200.476 39.978 200.699 39.3365 200.699 38.4254Z" fill="white"/>
</g>
<g filter="url(#filter5_f_3931_305)">
<path d="M175.815 49.9998H171.269L177.739 32.5127H182.23L188.533 49.9998H184.015L183.094 47.0714H176.735L175.815 49.9998ZM179.887 36.8078C179.738 37.3284 179.571 37.8862 179.385 38.4812C179.217 39.0576 178.929 40.0059 178.52 41.326L177.795 43.6409H182.007L181.281 41.326C181.04 40.6194 180.798 39.8757 180.556 39.0948C180.314 38.2953 180.091 37.5329 179.887 36.8078Z" fill="white"/>
</g>
<g filter="url(#filter6_f_3931_305)">
<path d="M168.627 32.5127V49.9998H164.499L157.583 39.9036V49.9998H153.539V32.5127H157.638L164.583 42.9994V32.5127H168.627Z" fill="white"/>
</g>
<g filter="url(#filter7_f_3931_305)">
<path d="M150.065 41.2419C150.065 44.4214 149.414 46.727 148.112 48.1587C146.829 49.5718 144.738 50.2783 141.837 50.2783C138.806 50.2783 136.677 49.609 135.45 48.2702C134.223 46.9315 133.609 44.5887 133.609 41.2419C133.609 38.0624 134.251 35.7662 135.534 34.353C136.835 32.9399 138.936 32.2334 141.837 32.2334C144.868 32.2334 146.997 32.9028 148.224 34.2415C149.451 35.5802 150.065 37.9137 150.065 41.2419ZM138.518 44.9792C138.76 45.444 139.113 45.7694 139.578 45.9554C140.061 46.1413 140.814 46.2343 141.837 46.2343C142.86 46.2343 143.603 46.1413 144.068 45.9554C144.552 45.7694 144.914 45.444 145.156 44.9792C145.342 44.6073 145.472 44.1239 145.546 43.5289C145.639 42.9339 145.686 42.1716 145.686 41.2419C145.686 40.2937 145.639 39.522 145.546 38.927C145.472 38.3135 145.342 37.8207 145.156 37.4489C144.933 36.9654 144.58 36.6307 144.096 36.4448C143.631 36.2403 142.878 36.138 141.837 36.138C140.796 36.138 140.033 36.2403 139.55 36.4448C139.085 36.6307 138.741 36.9654 138.518 37.4489C138.332 37.8207 138.193 38.3135 138.1 38.927C138.025 39.522 137.988 40.2937 137.988 41.2419C137.988 42.1716 138.025 42.9339 138.1 43.5289C138.193 44.1239 138.332 44.6073 138.518 44.9792Z" fill="white"/>
</g>
<g filter="url(#filter8_f_3931_305)">
<path d="M130.124 32.5127V49.9998H125.801V32.5127H130.124Z" fill="white"/>
</g>
<g filter="url(#filter9_f_3931_305)">
<path d="M122.719 32.5127V36.4173H117.95V49.9998H113.627V36.4173H108.858V32.5127H122.719Z" fill="white"/>
</g>
<g filter="url(#filter10_f_3931_305)">
<path d="M101.814 43.4731L98.272 42.6364C96.8589 42.3017 95.8921 41.7904 95.3714 41.1025C94.8694 40.4145 94.6184 39.4291 94.6184 38.1461C94.6184 36.1194 95.1483 34.632 96.2081 33.6837C97.2866 32.7168 98.9507 32.2334 101.2 32.2334C102.13 32.2334 102.958 32.2706 103.683 32.345C104.408 32.4193 105.077 32.5495 105.691 32.7354V36.6122C104.278 36.3704 103.302 36.231 102.762 36.1938C102.242 36.1566 101.693 36.138 101.117 36.138C100.336 36.138 99.7688 36.2682 99.4155 36.5285C99.0622 36.7888 98.8856 37.2257 98.8856 37.8393C98.8856 38.1368 98.9414 38.3692 99.0529 38.5366C99.1645 38.6853 99.3783 38.7969 99.6944 38.8713L103.041 39.6522C104.008 39.8753 104.705 40.0984 105.133 40.3215C105.561 40.5261 105.905 40.7957 106.165 41.1304C106.462 41.4836 106.676 41.9392 106.806 42.497C106.955 43.0548 107.03 43.7334 107.03 44.533C107.03 46.5596 106.49 48.0285 105.412 48.9396C104.333 49.8321 102.66 50.2783 100.392 50.2783C99.2389 50.2783 98.1419 50.204 97.1006 50.0552C96.0594 49.9251 95.2506 49.7577 94.6742 49.5532V45.4533C95.4179 45.695 96.3011 45.8903 97.3238 46.039C98.3464 46.1692 99.369 46.2343 100.392 46.2343C101.21 46.2343 101.777 46.132 102.093 45.9275C102.409 45.7229 102.567 45.3139 102.567 44.7003C102.567 44.3098 102.511 44.0309 102.4 43.8636C102.307 43.6777 102.112 43.5475 101.814 43.4731Z" fill="white"/>
</g>
<g filter="url(#filter11_f_3931_305)">
<path d="M91.749 45.9558V49.9998H79.7004V32.5127H91.498V36.4173H84.0234V39.3179H90.466V42.9436H84.0234V45.9558H91.749Z" fill="white"/>
</g>
<g filter="url(#filter12_f_3931_305)">
<path d="M71.4441 42.6368V32.5127H75.7671V42.6368C75.7671 45.1841 75.1442 47.0992 73.8985 48.3822C72.6527 49.6466 70.7841 50.2787 68.2926 50.2787C65.6709 50.2787 63.7558 49.6744 62.5472 48.4659C61.3572 47.2573 60.7622 45.3143 60.7622 42.6368V32.5127H65.0852V42.6368C65.0852 44.0499 65.299 45.0075 65.7267 45.5095C66.1729 45.9929 67.0282 46.2347 68.2926 46.2347C69.5383 46.2347 70.375 45.9929 70.8027 45.5095C71.2303 45.0075 71.4441 44.0499 71.4441 42.6368Z" fill="white"/>
</g>
<g filter="url(#filter13_f_3931_305)">
<path d="M49.2003 50.2783C46.1695 50.2783 44.0406 49.609 42.8134 48.2702C41.5862 46.9315 40.9727 44.5887 40.9727 41.2419C40.9727 38.0624 41.6141 35.7662 42.8971 34.353C44.1986 32.9399 46.2997 32.2334 49.2003 32.2334C52.231 32.2334 54.3599 32.9028 55.5871 34.2415C56.8143 35.5802 57.4279 37.9137 57.4279 41.2419C57.4279 43.3616 57.149 45.0722 56.5911 46.3737C56.0519 47.6753 55.1966 48.6421 54.0253 49.2743L57.4279 53.5694H52.4634L49.9254 50.2504C49.851 50.269 49.7581 50.2783 49.6465 50.2783C49.5535 50.2783 49.4048 50.2783 49.2003 50.2783ZM45.8813 44.9792C46.123 45.444 46.4763 45.7694 46.9412 45.9554C47.4246 46.1413 48.1776 46.2343 49.2003 46.2343C50.2229 46.2343 50.9666 46.1413 51.4315 45.9554C51.9149 45.7694 52.2775 45.444 52.5192 44.9792C52.7051 44.6073 52.8353 44.1239 52.9096 43.5289C53.0026 42.9339 53.0491 42.1716 53.0491 41.2419C53.0491 40.2937 53.0026 39.522 52.9096 38.927C52.8353 38.3135 52.7051 37.8207 52.5192 37.4489C52.2961 36.9654 51.9428 36.6307 51.4594 36.4448C50.9945 36.2403 50.2415 36.138 49.2003 36.138C48.159 36.138 47.3967 36.2403 46.9133 36.4448C46.4484 36.6307 46.1044 36.9654 45.8813 37.4489C45.6954 37.8207 45.5559 38.3135 45.463 38.927C45.3886 39.522 45.3514 40.2937 45.3514 41.2419C45.3514 42.1716 45.3886 42.9339 45.463 43.5289C45.5559 44.1239 45.6954 44.6073 45.8813 44.9792Z" fill="white"/>
</g>
<path d="M243.111 43.4731L239.569 42.6364C238.156 42.3017 237.189 41.7904 236.669 41.1025C236.167 40.4145 235.916 39.4291 235.916 38.1461C235.916 36.1194 236.446 34.632 237.506 33.6837C238.584 32.7168 240.248 32.2334 242.498 32.2334C243.428 32.2334 244.255 32.2706 244.98 32.345C245.705 32.4193 246.375 32.5495 246.988 32.7354V36.6122C245.575 36.3704 244.599 36.231 244.06 36.1938C243.539 36.1566 242.991 36.138 242.414 36.138C241.633 36.138 241.066 36.2682 240.713 36.5285C240.36 36.7888 240.183 37.2257 240.183 37.8393C240.183 38.1368 240.239 38.3692 240.35 38.5366C240.462 38.6853 240.676 38.7969 240.992 38.8713L244.339 39.6522C245.305 39.8753 246.003 40.0984 246.43 40.3215C246.858 40.5261 247.202 40.7957 247.462 41.1304C247.76 41.4836 247.974 41.9392 248.104 42.497C248.253 43.0548 248.327 43.7334 248.327 44.533C248.327 46.5596 247.788 48.0285 246.709 48.9396C245.631 49.8321 243.957 50.2783 241.689 50.2783C240.536 50.2783 239.439 50.204 238.398 50.0552C237.357 49.9251 236.548 49.7577 235.972 49.5532V45.4533C236.715 45.695 237.598 45.8903 238.621 46.039C239.644 46.1692 240.666 46.2343 241.689 46.2343C242.507 46.2343 243.074 46.132 243.39 45.9275C243.706 45.7229 243.864 45.3139 243.864 44.7003C243.864 44.3098 243.809 44.0309 243.697 43.8636C243.604 43.6777 243.409 43.5475 243.111 43.4731Z" fill="white"/>
<path d="M233 41.2419C233 44.4214 232.349 46.727 231.047 48.1587C229.764 49.5718 227.673 50.2783 224.772 50.2783C221.741 50.2783 219.612 49.609 218.385 48.2702C217.158 46.9315 216.544 44.5887 216.544 41.2419C216.544 38.0624 217.186 35.7662 218.469 34.353C219.77 32.9399 221.871 32.2334 224.772 32.2334C227.803 32.2334 229.932 32.9028 231.159 34.2415C232.386 35.5802 233 37.9137 233 41.2419ZM221.453 44.9792C221.695 45.444 222.048 45.7694 222.513 45.9554C222.996 46.1413 223.749 46.2343 224.772 46.2343C225.795 46.2343 226.538 46.1413 227.003 45.9554C227.487 45.7694 227.849 45.444 228.091 44.9792C228.277 44.6073 228.407 44.1239 228.481 43.5289C228.574 42.9339 228.621 42.1716 228.621 41.2419C228.621 40.2937 228.574 39.522 228.481 38.927C228.407 38.3135 228.277 37.8207 228.091 37.4489C227.868 36.9654 227.515 36.6307 227.031 36.4448C226.566 36.2403 225.813 36.138 224.772 36.138C223.731 36.138 222.968 36.2403 222.485 36.4448C222.02 36.6307 221.676 36.9654 221.453 37.4489C221.267 37.8207 221.128 38.3135 221.035 38.927C220.96 39.522 220.923 40.2937 220.923 41.2419C220.923 42.1716 220.96 42.9339 221.035 43.5289C221.128 44.1239 221.267 44.6073 221.453 44.9792Z" fill="white"/>
<path d="M213.059 32.5127V49.9998H208.736V32.5127H213.059Z" fill="white"/>
<path d="M195.568 44.366V49.9998H191.245V32.5127H197.631C200.328 32.5127 202.243 32.9682 203.377 33.8793C204.511 34.7904 205.078 36.3058 205.078 38.4254C205.078 39.8571 204.771 41.0285 204.158 41.9396C203.563 42.8321 202.652 43.4828 201.425 43.8919L205.692 49.9998H200.504L196.878 44.366H195.568ZM200.699 38.4254C200.699 37.6817 200.476 37.1611 200.03 36.8636C199.584 36.5661 198.784 36.4173 197.631 36.4173H195.568V40.8797H197.631C198.784 40.8797 199.584 40.7031 200.03 40.3498C200.476 39.978 200.699 39.3365 200.699 38.4254Z" fill="white"/>
<path d="M175.815 49.9998H171.269L177.739 32.5127H182.23L188.533 49.9998H184.015L183.094 47.0714H176.735L175.815 49.9998ZM179.887 36.8078C179.738 37.3284 179.571 37.8862 179.385 38.4812C179.217 39.0576 178.929 40.0059 178.52 41.326L177.795 43.6409H182.007L181.281 41.326C181.04 40.6194 180.798 39.8757 180.556 39.0948C180.314 38.2953 180.091 37.5329 179.887 36.8078Z" fill="white"/>
<path d="M168.627 32.5127V49.9998H164.499L157.583 39.9036V49.9998H153.539V32.5127H157.638L164.583 42.9994V32.5127H168.627Z" fill="white"/>
<path d="M150.065 41.2419C150.065 44.4214 149.414 46.727 148.112 48.1587C146.829 49.5718 144.738 50.2783 141.837 50.2783C138.806 50.2783 136.677 49.609 135.45 48.2702C134.223 46.9315 133.609 44.5887 133.609 41.2419C133.609 38.0624 134.251 35.7662 135.534 34.353C136.835 32.9399 138.936 32.2334 141.837 32.2334C144.868 32.2334 146.997 32.9028 148.224 34.2415C149.451 35.5802 150.065 37.9137 150.065 41.2419ZM138.518 44.9792C138.76 45.444 139.113 45.7694 139.578 45.9554C140.061 46.1413 140.814 46.2343 141.837 46.2343C142.86 46.2343 143.603 46.1413 144.068 45.9554C144.552 45.7694 144.914 45.444 145.156 44.9792C145.342 44.6073 145.472 44.1239 145.546 43.5289C145.639 42.9339 145.686 42.1716 145.686 41.2419C145.686 40.2937 145.639 39.522 145.546 38.927C145.472 38.3135 145.342 37.8207 145.156 37.4489C144.933 36.9654 144.58 36.6307 144.096 36.4448C143.631 36.2403 142.878 36.138 141.837 36.138C140.796 36.138 140.033 36.2403 139.55 36.4448C139.085 36.6307 138.741 36.9654 138.518 37.4489C138.332 37.8207 138.193 38.3135 138.1 38.927C138.025 39.522 137.988 40.2937 137.988 41.2419C137.988 42.1716 138.025 42.9339 138.1 43.5289C138.193 44.1239 138.332 44.6073 138.518 44.9792Z" fill="white"/>
<path d="M130.124 32.5127V49.9998H125.801V32.5127H130.124Z" fill="white"/>
<path d="M122.719 32.5127V36.4173H117.95V49.9998H113.627V36.4173H108.858V32.5127H122.719Z" fill="white"/>
<path d="M101.814 43.4731L98.272 42.6364C96.8589 42.3017 95.8921 41.7904 95.3714 41.1025C94.8694 40.4145 94.6184 39.4291 94.6184 38.1461C94.6184 36.1194 95.1483 34.632 96.2081 33.6837C97.2866 32.7168 98.9507 32.2334 101.2 32.2334C102.13 32.2334 102.958 32.2706 103.683 32.345C104.408 32.4193 105.077 32.5495 105.691 32.7354V36.6122C104.278 36.3704 103.302 36.231 102.762 36.1938C102.242 36.1566 101.693 36.138 101.117 36.138C100.336 36.138 99.7688 36.2682 99.4155 36.5285C99.0622 36.7888 98.8856 37.2257 98.8856 37.8393C98.8856 38.1368 98.9414 38.3692 99.0529 38.5366C99.1645 38.6853 99.3783 38.7969 99.6944 38.8713L103.041 39.6522C104.008 39.8753 104.705 40.0984 105.133 40.3215C105.561 40.5261 105.905 40.7957 106.165 41.1304C106.462 41.4836 106.676 41.9392 106.806 42.497C106.955 43.0548 107.03 43.7334 107.03 44.533C107.03 46.5596 106.49 48.0285 105.412 48.9396C104.333 49.8321 102.66 50.2783 100.392 50.2783C99.2389 50.2783 98.1419 50.204 97.1006 50.0552C96.0594 49.9251 95.2506 49.7577 94.6742 49.5532V45.4533C95.4179 45.695 96.3011 45.8903 97.3238 46.039C98.3464 46.1692 99.369 46.2343 100.392 46.2343C101.21 46.2343 101.777 46.132 102.093 45.9275C102.409 45.7229 102.567 45.3139 102.567 44.7003C102.567 44.3098 102.511 44.0309 102.4 43.8636C102.307 43.6777 102.112 43.5475 101.814 43.4731Z" fill="white"/>
<path d="M91.749 45.9558V49.9998H79.7004V32.5127H91.498V36.4173H84.0234V39.3179H90.466V42.9436H84.0234V45.9558H91.749Z" fill="white"/>
<path d="M71.4441 42.6368V32.5127H75.7671V42.6368C75.7671 45.1841 75.1442 47.0992 73.8985 48.3822C72.6527 49.6466 70.7841 50.2787 68.2926 50.2787C65.6709 50.2787 63.7558 49.6744 62.5472 48.4659C61.3572 47.2573 60.7622 45.3143 60.7622 42.6368V32.5127H65.0852V42.6368C65.0852 44.0499 65.299 45.0075 65.7267 45.5095C66.1729 45.9929 67.0282 46.2347 68.2926 46.2347C69.5383 46.2347 70.375 45.9929 70.8027 45.5095C71.2303 45.0075 71.4441 44.0499 71.4441 42.6368Z" fill="white"/>
<path d="M49.2003 50.2783C46.1695 50.2783 44.0406 49.609 42.8134 48.2702C41.5862 46.9315 40.9727 44.5887 40.9727 41.2419C40.9727 38.0624 41.6141 35.7662 42.8971 34.353C44.1986 32.9399 46.2997 32.2334 49.2003 32.2334C52.231 32.2334 54.3599 32.9028 55.5871 34.2415C56.8143 35.5802 57.4279 37.9137 57.4279 41.2419C57.4279 43.3616 57.149 45.0722 56.5911 46.3737C56.0519 47.6753 55.1966 48.6421 54.0253 49.2743L57.4279 53.5694H52.4634L49.9254 50.2504C49.851 50.269 49.7581 50.2783 49.6465 50.2783C49.5535 50.2783 49.4048 50.2783 49.2003 50.2783ZM45.8813 44.9792C46.123 45.444 46.4763 45.7694 46.9412 45.9554C47.4246 46.1413 48.1776 46.2343 49.2003 46.2343C50.2229 46.2343 50.9666 46.1413 51.4315 45.9554C51.9149 45.7694 52.2775 45.444 52.5192 44.9792C52.7051 44.6073 52.8353 44.1239 52.9096 43.5289C53.0026 42.9339 53.0491 42.1716 53.0491 41.2419C53.0491 40.2937 53.0026 39.522 52.9096 38.927C52.8353 38.3135 52.7051 37.8207 52.5192 37.4489C52.2961 36.9654 51.9428 36.6307 51.4594 36.4448C50.9945 36.2403 50.2415 36.138 49.2003 36.138C48.159 36.138 47.3967 36.2403 46.9133 36.4448C46.4484 36.6307 46.1044 36.9654 45.8813 37.4489C45.6954 37.8207 45.5559 38.3135 45.463 38.927C45.3886 39.522 45.3514 40.2937 45.3514 41.2419C45.3514 42.1716 45.3886 42.9339 45.463 43.5289C45.5559 44.1239 45.6954 44.6073 45.8813 44.9792Z" fill="white"/>
<defs>
<filter id="filter0_d_3931_305" x="10" y="0" width="270" height="100" filterUnits="userSpaceOnUse" color-interpolation-filters="sRGB">
<feFlood flood-opacity="0" result="BackgroundImageFix"/>
<feColorMatrix in="SourceAlpha" type="matrix" values="0 0 0 0 0 0 0 0 0 0 0 0 0 0 0 0 0 0 127 0" result="hardAlpha"/>
<feOffset dy="10"/>
<feGaussianBlur stdDeviation="7.5"/>
<feComposite in2="hardAlpha" operator="out"/>
<feColorMatrix type="matrix" values="0 0 0 0 0 0 0 0 0 0 0 0 0 0 0 0 0 0 0.2 0"/>
<feBlend mode="normal" in2="BackgroundImageFix" result="effect1_dropShadow_3931_305"/>
<feBlend mode="normal" in="SourceGraphic" in2="effect1_dropShadow_3931_305" result="shape"/>
</filter>
<filter id="filter1_f_3931_305" x="232.728" y="29.046" width="18.786" height="24.4198" filterUnits="userSpaceOnUse" color-interpolation-filters="sRGB">
<feFlood flood-opacity="0" result="BackgroundImageFix"/>
<feBlend mode="normal" in="SourceGraphic" in2="BackgroundImageFix" result="shape"/>
<feGaussianBlur stdDeviation="1.59372" result="effect1_foregroundBlur_3931_305"/>
</filter>
<filter id="filter2_f_3931_305" x="213.357" y="29.046" width="22.83" height="24.4198" filterUnits="userSpaceOnUse" color-interpolation-filters="sRGB">
<feFlood flood-opacity="0" result="BackgroundImageFix"/>
<feBlend mode="normal" in="SourceGraphic" in2="BackgroundImageFix" result="shape"/>
<feGaussianBlur stdDeviation="1.59372" result="effect1_foregroundBlur_3931_305"/>
</filter>
<filter id="filter3_f_3931_305" x="205.548" y="29.3252" width="10.6979" height="23.8622" filterUnits="userSpaceOnUse" color-interpolation-filters="sRGB">
<feFlood flood-opacity="0" result="BackgroundImageFix"/>
<feBlend mode="normal" in="SourceGraphic" in2="BackgroundImageFix" result="shape"/>
<feGaussianBlur stdDeviation="1.59372" result="effect1_foregroundBlur_3931_305"/>
</filter>
<filter id="filter4_f_3931_305" x="188.057" y="29.3252" width="20.8219" height="23.8622" filterUnits="userSpaceOnUse" color-interpolation-filters="sRGB">
<feFlood flood-opacity="0" result="BackgroundImageFix"/>
<feBlend mode="normal" in="SourceGraphic" in2="BackgroundImageFix" result="shape"/>
<feGaussianBlur stdDeviation="1.59372" result="effect1_foregroundBlur_3931_305"/>
</filter>
<filter id="filter5_f_3931_305" x="168.081" y="29.3252" width="23.6388" height="23.8622" filterUnits="userSpaceOnUse" color-interpolation-filters="sRGB">
<feFlood flood-opacity="0" result="BackgroundImageFix"/>
<feBlend mode="normal" in="SourceGraphic" in2="BackgroundImageFix" result="shape"/>
<feGaussianBlur stdDeviation="1.59372" result="effect1_foregroundBlur_3931_305"/>
</filter>
<filter id="filter6_f_3931_305" x="150.351" y="29.3252" width="21.4635" height="23.8622" filterUnits="userSpaceOnUse" color-interpolation-filters="sRGB">
<feFlood flood-opacity="0" result="BackgroundImageFix"/>
<feBlend mode="normal" in="SourceGraphic" in2="BackgroundImageFix" result="shape"/>
<feGaussianBlur stdDeviation="1.59372" result="effect1_foregroundBlur_3931_305"/>
</filter>
<filter id="filter7_f_3931_305" x="130.422" y="29.046" width="22.83" height="24.4198" filterUnits="userSpaceOnUse" color-interpolation-filters="sRGB">
<feFlood flood-opacity="0" result="BackgroundImageFix"/>
<feBlend mode="normal" in="SourceGraphic" in2="BackgroundImageFix" result="shape"/>
<feGaussianBlur stdDeviation="1.59372" result="effect1_foregroundBlur_3931_305"/>
</filter>
<filter id="filter8_f_3931_305" x="122.613" y="29.3252" width="10.6979" height="23.8622" filterUnits="userSpaceOnUse" color-interpolation-filters="sRGB">
<feFlood flood-opacity="0" result="BackgroundImageFix"/>
<feBlend mode="normal" in="SourceGraphic" in2="BackgroundImageFix" result="shape"/>
<feGaussianBlur stdDeviation="1.59372" result="effect1_foregroundBlur_3931_305"/>
</filter>
<filter id="filter9_f_3931_305" x="105.67" y="29.3252" width="20.2362" height="23.8622" filterUnits="userSpaceOnUse" color-interpolation-filters="sRGB">
<feFlood flood-opacity="0" result="BackgroundImageFix"/>
<feBlend mode="normal" in="SourceGraphic" in2="BackgroundImageFix" result="shape"/>
<feGaussianBlur stdDeviation="1.59372" result="effect1_foregroundBlur_3931_305"/>
</filter>
<filter id="filter10_f_3931_305" x="91.431" y="29.046" width="18.786" height="24.4198" filterUnits="userSpaceOnUse" color-interpolation-filters="sRGB">
<feFlood flood-opacity="0" result="BackgroundImageFix"/>
<feBlend mode="normal" in="SourceGraphic" in2="BackgroundImageFix" result="shape"/>
<feGaussianBlur stdDeviation="1.59372" result="effect1_foregroundBlur_3931_305"/>
</filter>
<filter id="filter11_f_3931_305" x="76.513" y="29.3252" width="18.4235" height="23.8622" filterUnits="userSpaceOnUse" color-interpolation-filters="sRGB">
<feFlood flood-opacity="0" result="BackgroundImageFix"/>
<feBlend mode="normal" in="SourceGraphic" in2="BackgroundImageFix" result="shape"/>
<feGaussianBlur stdDeviation="1.59372" result="effect1_foregroundBlur_3931_305"/>
</filter>
<filter id="filter12_f_3931_305" x="57.5748" y="29.3252" width="21.3798" height="24.1405" filterUnits="userSpaceOnUse" color-interpolation-filters="sRGB">
<feFlood flood-opacity="0" result="BackgroundImageFix"/>
<feBlend mode="normal" in="SourceGraphic" in2="BackgroundImageFix" result="shape"/>
<feGaussianBlur stdDeviation="1.59372" result="effect1_foregroundBlur_3931_305"/>
</filter>
<filter id="filter13_f_3931_305" x="37.7852" y="29.046" width="22.83" height="27.7108" filterUnits="userSpaceOnUse" color-interpolation-filters="sRGB">
<feFlood flood-opacity="0" result="BackgroundImageFix"/>
<feBlend mode="normal" in="SourceGraphic" in2="BackgroundImageFix" result="shape"/>
<feGaussianBlur stdDeviation="1.59372" result="effect1_foregroundBlur_3931_305"/>
</filter>
</defs>
</svg>
