<svg width="280" height="100" viewBox="0 0 280 100" fill="none" xmlns="http://www.w3.org/2000/svg">
<path d="M27 43V9L0 43H27Z" fill="#FF9D00"/>
<g filter="url(#filter0_d_2931_3901)">
<rect x="25" y="5" width="240" height="70" rx="10" fill="#FF9D00"/>
</g>
<rect x="25" y="28.3457" width="240" height="23.3094" fill="#FFCC00"/>
<path d="M25 15C25 9.47715 29.4772 5 35 5H255C260.523 5 265 9.47715 265 15V28.3094H25V15Z" fill="#FFEB00"/>
<g filter="url(#filter1_f_2931_3901)">
<path d="M75.2608 44.93V52H69.8358V30.055H77.8508C81.2341 30.055 83.6375 30.6267 85.0608 31.77C86.4841 32.9133 87.1958 34.815 87.1958 37.475C87.1958 39.2717 86.8108 40.7417 86.0408 41.885C85.2941 43.005 84.1508 43.8217 82.6108 44.335L87.9658 52H81.4558L76.9058 44.93H75.2608ZM81.7008 37.475C81.7008 36.5417 81.4208 35.8883 80.8608 35.515C80.3008 35.1417 79.2975 34.955 77.8508 34.955H75.2608V40.555H77.8508C79.2975 40.555 80.3008 40.3333 80.8608 39.89C81.4208 39.4233 81.7008 38.6183 81.7008 37.475ZM95.706 52H90.001L98.121 30.055H103.756L111.666 52H105.996L104.841 48.325H96.861L95.706 52ZM100.816 35.445C100.629 36.0983 100.419 36.7983 100.186 37.545C99.976 38.2683 99.6143 39.4583 99.101 41.115L98.191 44.02H103.476L102.566 41.115C102.263 40.2283 101.959 39.295 101.656 38.315C101.353 37.3117 101.073 36.355 100.816 35.445ZM134.004 30.055V52H128.824L120.144 39.33V52H115.069V30.055H120.214L128.929 43.215V30.055H134.004ZM150.619 40.695L158.844 52H151.984L145.999 43.04H144.529V52H139.104V30.055H144.529V38.7H145.999L152.054 30.055H158.564L150.619 40.695ZM167.266 30.055V52H161.841V30.055H167.266ZM191.31 30.055V52H186.13L177.45 39.33V52H172.375V30.055H177.52L186.235 43.215V30.055H191.31ZM208.835 43.845H205.055V39.47H213.91V51.02C213.257 51.3233 212.09 51.6267 210.41 51.93C208.73 52.21 207.202 52.35 205.825 52.35C202.022 52.35 199.373 51.475 197.88 49.725C196.41 47.975 195.675 45.07 195.675 41.01C195.675 37.09 196.538 34.2317 198.265 32.435C199.992 30.615 202.745 29.705 206.525 29.705C207.902 29.705 209.127 29.74 210.2 29.81C211.297 29.8567 212.137 29.9383 212.72 30.055V34.815C211.95 34.745 211.028 34.6983 209.955 34.675C208.905 34.6283 207.762 34.605 206.525 34.605C205.195 34.605 204.203 34.7217 203.55 34.955C202.92 35.1883 202.442 35.5967 202.115 36.18C201.812 36.6467 201.59 37.2767 201.45 38.07C201.333 38.84 201.275 39.82 201.275 41.01C201.275 42.1533 201.333 43.11 201.45 43.88C201.567 44.65 201.753 45.2683 202.01 45.735C202.337 46.365 202.792 46.8083 203.375 47.065C203.982 47.3217 204.915 47.45 206.175 47.45C206.595 47.45 207.027 47.4383 207.47 47.415C207.937 47.3683 208.392 47.31 208.835 47.24V43.845Z" fill="white"/>
</g>
<path d="M75.2608 44.93V52H69.8358V30.055H77.8508C81.2341 30.055 83.6375 30.6267 85.0608 31.77C86.4841 32.9133 87.1958 34.815 87.1958 37.475C87.1958 39.2717 86.8108 40.7417 86.0408 41.885C85.2941 43.005 84.1508 43.8217 82.6108 44.335L87.9658 52H81.4558L76.9058 44.93H75.2608ZM81.7008 37.475C81.7008 36.5417 81.4208 35.8883 80.8608 35.515C80.3008 35.1417 79.2975 34.955 77.8508 34.955H75.2608V40.555H77.8508C79.2975 40.555 80.3008 40.3333 80.8608 39.89C81.4208 39.4233 81.7008 38.6183 81.7008 37.475ZM95.706 52H90.001L98.121 30.055H103.756L111.666 52H105.996L104.841 48.325H96.861L95.706 52ZM100.816 35.445C100.629 36.0983 100.419 36.7983 100.186 37.545C99.976 38.2683 99.6143 39.4583 99.101 41.115L98.191 44.02H103.476L102.566 41.115C102.263 40.2283 101.959 39.295 101.656 38.315C101.353 37.3117 101.073 36.355 100.816 35.445ZM134.004 30.055V52H128.824L120.144 39.33V52H115.069V30.055H120.214L128.929 43.215V30.055H134.004ZM150.619 40.695L158.844 52H151.984L145.999 43.04H144.529V52H139.104V30.055H144.529V38.7H145.999L152.054 30.055H158.564L150.619 40.695ZM167.266 30.055V52H161.841V30.055H167.266ZM191.31 30.055V52H186.13L177.45 39.33V52H172.375V30.055H177.52L186.235 43.215V30.055H191.31ZM208.835 43.845H205.055V39.47H213.91V51.02C213.257 51.3233 212.09 51.6267 210.41 51.93C208.73 52.21 207.202 52.35 205.825 52.35C202.022 52.35 199.373 51.475 197.88 49.725C196.41 47.975 195.675 45.07 195.675 41.01C195.675 37.09 196.538 34.2317 198.265 32.435C199.992 30.615 202.745 29.705 206.525 29.705C207.902 29.705 209.127 29.74 210.2 29.81C211.297 29.8567 212.137 29.9383 212.72 30.055V34.815C211.95 34.745 211.028 34.6983 209.955 34.675C208.905 34.6283 207.762 34.605 206.525 34.605C205.195 34.605 204.203 34.7217 203.55 34.955C202.92 35.1883 202.442 35.5967 202.115 36.18C201.812 36.6467 201.59 37.2767 201.45 38.07C201.333 38.84 201.275 39.82 201.275 41.01C201.275 42.1533 201.333 43.11 201.45 43.88C201.567 44.65 201.753 45.2683 202.01 45.735C202.337 46.365 202.792 46.8083 203.375 47.065C203.982 47.3217 204.915 47.45 206.175 47.45C206.595 47.45 207.027 47.4383 207.47 47.415C207.937 47.3683 208.392 47.31 208.835 47.24V43.845Z" fill="white"/>
<defs>
<filter id="filter0_d_2931_3901" x="10" y="0" width="270" height="100" filterUnits="userSpaceOnUse" color-interpolation-filters="sRGB">
<feFlood flood-opacity="0" result="BackgroundImageFix"/>
<feColorMatrix in="SourceAlpha" type="matrix" values="0 0 0 0 0 0 0 0 0 0 0 0 0 0 0 0 0 0 127 0" result="hardAlpha"/>
<feOffset dy="10"/>
<feGaussianBlur stdDeviation="7.5"/>
<feComposite in2="hardAlpha" operator="out"/>
<feColorMatrix type="matrix" values="0 0 0 0 0 0 0 0 0 0 0 0 0 0 0 0 0 0 0.2 0"/>
<feBlend mode="normal" in2="BackgroundImageFix" result="effect1_dropShadow_2931_3901"/>
<feBlend mode="normal" in="SourceGraphic" in2="effect1_dropShadow_2931_3901" result="shape"/>
</filter>
<filter id="filter1_f_2931_3901" x="65.8357" y="25.7051" width="152.074" height="30.6445" filterUnits="userSpaceOnUse" color-interpolation-filters="sRGB">
<feFlood flood-opacity="0" result="BackgroundImageFix"/>
<feBlend mode="normal" in="SourceGraphic" in2="BackgroundImageFix" result="shape"/>
<feGaussianBlur stdDeviation="2" result="effect1_foregroundBlur_2931_3901"/>
</filter>
</defs>
</svg>
